<svg width="9" height="13" viewBox="0 0 9 13" fill="none" xmlns="http://www.w3.org/2000/svg">
<path d="M8.75474 6.65674C8.91604 6.44282 8.92276 6.14001 8.70673 5.92884L6.21011 3.66241C6.09274 3.57418 5.98338 3.51629 5.88201 3.48871C5.78067 3.46114 5.65529 3.44735 5.50593 3.44735H3.8415C3.69218 3.44735 3.56682 3.46114 3.46544 3.48871C3.36408 3.51629 3.25472 3.56865 3.13733 3.64587L0.640713 5.92883C0.431299 6.12646 0.420265 6.40204 0.5927 6.65673C0.763271 6.8492 1.07435 6.87777 1.29688 6.70636L3.20137 5.01895C3.29739 4.93071 3.37475 4.88935 3.43342 4.89488C3.49211 4.90033 3.52144 4.9803 3.52144 5.13475C3.52144 5.92895 3.54776 6.63189 3.44143 7.41771L2.72125 11.6693C2.66679 12.0126 2.84755 12.3181 3.21737 12.4137C3.54102 12.4717 3.8402 12.2597 3.93753 11.9009C3.93753 11.9009 4.51431 8.49113 4.52968 8.42684C4.54507 8.36254 4.52821 8.10922 4.67374 8.05463C4.78701 8.07075 4.80665 8.37237 4.81778 8.42684C4.82892 8.4813 5.40993 11.9009 5.40993 11.9009C5.45651 12.211 5.79789 12.5071 6.13011 12.4137C6.46183 12.3487 6.66749 12.0582 6.62622 11.6693L5.90605 7.43425C5.90605 7.40117 5.89272 7.27157 5.86604 7.04548C5.79566 6.42813 5.84145 5.7554 5.81002 5.11821C5.81002 4.96382 5.84203 4.88661 5.90606 4.88661C5.9772 4.88846 6.14421 5.02777 6.14611 5.00242L8.05056 6.70638C8.24648 6.88106 8.55745 6.87189 8.75474 6.65674Z" fill="#1C1C1C"/>
<path d="M4.68047 3.14433C5.28502 3.14433 5.77513 2.63773 5.77513 2.01278C5.77513 1.38786 5.28503 0.881236 4.68047 0.881248C4.0759 0.881248 3.58579 1.38786 3.58579 2.01278C3.58579 2.63773 4.0759 3.14433 4.68047 3.14433Z" fill="#1C1C1C"/>
</svg>
