<svg width="22" height="22" viewBox="0 0 22 22" fill="none" xmlns="http://www.w3.org/2000/svg">
<path d="M19.1719 21.1562C20.2819 21.1562 21.1719 20.2663 21.1719 19.1562V17.1562H19.1719V19.1562H17.1719V21.1562H19.1719ZM15.1719 21.1562V19.1562H12.1719V21.1562H15.1719ZM10.1719 21.1562V19.1562H8.17188V17.1562H6.17188V19.1562C6.17188 20.2663 7.06187 21.1562 8.17188 21.1562H10.1719ZM21.1719 15.1562V12.1562H19.1719V15.1562H21.1719ZM8.17188 15.1562V8.15625H15.1719V2.15625C15.1719 1.04625 14.2819 0.15625 13.1719 0.15625H2.17188C1.06187 0.15625 0.171875 1.04625 0.171875 2.15625V13.1562C0.171875 14.2662 1.06187 15.1562 2.17188 15.1562H8.17188ZM6.17188 13.1562H2.17188V2.15625H13.1719V6.15625H8.17188C7.06187 6.15625 6.17188 7.04625 6.17188 8.15625V13.1562ZM21.1719 10.1562V8.15625C21.1719 7.04625 20.2819 6.15625 19.1719 6.15625H17.1719V8.15625H19.1719V10.1562H21.1719Z" fill="#1C1C1C"/>
</svg>
