<svg width="26" height="16" viewBox="0 0 26 16" fill="none" xmlns="http://www.w3.org/2000/svg">
<path d="M0.921875 0.28125V15.1562H25.4219V0.28125H0.921875ZM4.42188 2.03125H21.9219C21.9219 2.49538 22.1063 2.9405 22.4344 3.26869C22.7626 3.59688 23.2077 3.78125 23.6719 3.78125V11.6562C23.2077 11.6562 22.7626 11.8406 22.4344 12.1688C22.1063 12.497 21.9219 12.9421 21.9219 13.4062H4.42188C4.42188 12.9421 4.2375 12.497 3.90931 12.1688C3.58112 11.8406 3.136 11.6562 2.67188 11.6562V3.78125C3.136 3.78125 3.58112 3.59688 3.90931 3.26869C4.2375 2.9405 4.42188 2.49538 4.42188 2.03125ZM13.1719 3.78125C11.2373 3.78125 9.67188 5.54525 9.67188 7.71875C9.67188 9.89225 11.2373 11.6562 13.1719 11.6562C15.1065 11.6562 16.6719 9.89225 16.6719 7.71875C16.6719 5.54525 15.1065 3.78125 13.1719 3.78125ZM13.1719 5.53125C14.1361 5.53125 14.9219 6.51213 14.9219 7.71875C14.9219 8.92537 14.1361 9.90625 13.1719 9.90625C12.2076 9.90625 11.4219 8.92537 11.4219 7.71875C11.4219 6.51213 12.2076 5.53125 13.1719 5.53125ZM6.60938 6.40625C6.43696 6.40631 6.26624 6.44032 6.10697 6.50636C5.9477 6.57239 5.80299 6.66915 5.68112 6.79111C5.55924 6.91307 5.46258 7.05784 5.39665 7.21715C5.33072 7.37647 5.29682 7.54721 5.29688 7.71963C5.29693 7.89204 5.33095 8.06276 5.39698 8.22203C5.46302 8.3813 5.55978 8.52601 5.68174 8.64788C5.80369 8.76976 5.94846 8.86642 6.10778 8.93235C6.26709 8.99828 6.43783 9.03218 6.61025 9.03212C6.95846 9.03201 7.29237 8.89357 7.53851 8.64727C7.78465 8.40096 7.92287 8.06696 7.92275 7.71875C7.92263 7.37054 7.7842 7.03663 7.53789 6.79049C7.29158 6.54435 6.95759 6.40613 6.60938 6.40625ZM19.7344 6.40625C19.562 6.40631 19.3912 6.44032 19.232 6.50636C19.0727 6.57239 18.928 6.66915 18.8061 6.79111C18.6842 6.91307 18.5876 7.05784 18.5216 7.21715C18.4557 7.37647 18.4218 7.54721 18.4219 7.71963C18.4219 7.89204 18.4559 8.06276 18.522 8.22203C18.588 8.3813 18.6848 8.52601 18.8067 8.64788C18.9287 8.76976 19.0735 8.86642 19.2328 8.93235C19.3921 8.99828 19.5628 9.03218 19.7352 9.03212C20.0835 9.03201 20.4174 8.89357 20.6635 8.64727C20.9097 8.40096 21.0479 8.06696 21.0477 7.71875C21.0476 7.37054 20.9092 7.03663 20.6629 6.79049C20.4166 6.54435 20.0826 6.40613 19.7344 6.40625Z" fill="#1C1C1C"/>
</svg>
