<svg width="105" height="33" viewBox="0 0 105 33" fill="none" xmlns="http://www.w3.org/2000/svg">
<circle cx="3.83437" cy="12.3773" r="3.74843" fill="#84F8CF"/>
<circle cx="3.83437" cy="12.3773" r="3.74843" fill="#E54D57"/>
<circle cx="11.682" cy="19.2406" r="3.74843" fill="#C1FDE8"/>
<circle cx="11.682" cy="19.2406" r="3.74843" fill="#07D6A5"/>
<circle cx="11.3539" cy="9.18593" r="3.74843" fill="#59C59E"/>
<circle cx="11.3539" cy="9.18593" r="3.74843" fill="#2395FF"/>
<circle cx="3.83437" cy="20.5499" r="3.74843" fill="#A4FCDE"/>
<circle cx="3.83437" cy="20.5499" r="3.74843" fill="#A8DD12"/>
<circle cx="3.83437" cy="28.3732" r="3.74843" fill="#84F8CF"/>
<circle cx="3.83437" cy="28.3732" r="3.74843" fill="#FF7A00"/>
<circle cx="11.682" cy="28.3146" r="3.74843" fill="#A4FCDE"/>
<circle cx="11.682" cy="28.3146" r="3.74843" fill="#FF8E95"/>
<circle cx="18.7406" cy="4.20156" r="3.74843" fill="#4AA083"/>
<circle cx="18.7406" cy="4.20156" r="3.74843" fill="#7F52FF"/>
<circle cx="19.2016" cy="16.0539" r="3.74843" fill="#59C59E"/>
<circle cx="19.2016" cy="16.0539" r="3.74843" fill="#BB34FB"/>
<circle cx="19.5297" cy="28.2992" r="3.74843" fill="#84F8CF"/>
<circle cx="19.5297" cy="28.2992" r="3.74843" fill="#F0D800"/>
<path d="M33.408 18.8352C35.2382 18.8352 36.3707 17.9698 36.3707 16.5022C36.3707 15.3444 35.4954 14.5434 34.3085 14.4148V14.3387C35.2031 14.1809 35.938 13.4266 35.938 12.4794C35.938 11.1989 34.899 10.3978 33.3437 10.3978H30.3091V18.8352H33.408ZM31.196 11.1053H33.1917C34.3436 11.1053 35.0452 11.6608 35.0452 12.608C35.0452 13.5903 34.3026 14.1166 32.9987 14.1166H31.196V11.1053ZM31.196 18.1277V14.8982H33.1975C34.6652 14.8982 35.4662 15.3912 35.4662 16.4612C35.4662 17.543 34.7119 18.1277 33.2969 18.1277H31.196Z" fill="white"/>
<path d="M38.0843 12.8167H38.9653C38.977 11.7467 39.7196 10.924 40.8189 10.924C41.9006 10.924 42.6198 11.6666 42.6198 12.6431C42.6198 13.4091 42.2865 13.9061 41.1229 15.1573L38.131 18.188V18.8352H43.7348V18.1101H39.3396V18.04L41.624 15.7479C43.1091 14.2043 43.5243 13.5085 43.5243 12.5671C43.5243 11.2222 42.3216 10.1365 40.8657 10.1365C39.3103 10.1365 38.0959 11.3549 38.0843 12.8167Z" fill="white"/>
<path d="M48.9665 18.8352C50.7966 18.8352 51.9291 17.9698 51.9291 16.5022C51.9291 15.3444 51.0539 14.5434 49.8669 14.4148V14.3387C50.7615 14.1809 51.4964 13.4266 51.4964 12.4794C51.4964 11.1989 50.4575 10.3978 48.9021 10.3978H45.8675V18.8352H48.9665ZM46.7544 11.1053H48.7501C49.902 11.1053 50.6036 11.6608 50.6036 12.608C50.6036 13.5903 49.8611 14.1166 48.5572 14.1166H46.7544V11.1053ZM46.7544 18.1277V14.8982H48.756C50.2236 14.8982 51.0246 15.3912 51.0246 16.4612C51.0246 17.543 50.2704 18.1277 48.8554 18.1277H46.7544Z" fill="white"/>
<path d="M60.9815 19.0106C62.7708 19.0106 64.1039 17.8956 64.3436 16.3461H63.5309C63.297 17.4571 62.2855 18.268 60.9815 18.268C59.204 18.268 58.0814 16.853 58.0814 14.6194C58.0814 12.3858 59.2099 10.965 60.9757 10.965C62.2445 10.965 63.2853 11.8694 63.5309 13.0623H64.3436C64.1156 11.4601 62.7123 10.2224 60.9757 10.2224C58.6895 10.2224 57.091 11.9122 57.091 14.6194C57.091 17.3266 58.6895 19.0106 60.9815 19.0106Z" fill="white"/>
<path d="M66.3536 18.8352H67.2054V14.9059C67.2054 13.9119 67.9305 13.2611 68.9069 13.2611C69.135 13.2611 69.4507 13.2961 69.5911 13.3371L69.8487 12.4852C69.6791 12.4443 69.211 12.4326 69.0005 12.4326C68.1644 12.4326 67.371 12.8887 67.1605 13.5728H67.1704V12.452H66.3536V18.8352Z" fill="white"/>
<path d="M75.394 17.194C75.125 17.8137 74.4818 18.1704 73.5872 18.1704C72.371 18.1704 71.5816 17.3442 71.5407 15.9233V15.8882H76.3569V15.5491C76.3569 13.6254 75.2419 12.4326 73.5638 12.4326C71.8506 12.4326 70.6655 13.7131 70.6655 15.6894C70.6655 17.6774 71.8389 18.9404 73.5697 18.9404C74.8911 18.9404 75.9593 18.2113 76.2575 17.194H75.394ZM73.558 13.1967C74.6981 13.1967 75.4524 13.9587 75.47 15.2567H71.5466C71.6167 13.9587 72.4119 13.1967 73.558 13.1967Z" fill="white"/>
<path d="M80.045 18.9404C80.9688 18.9404 81.7406 18.5019 82.1265 17.7535H82.1108V18.8352H82.9334V14.5317C82.9334 13.2044 82.0739 12.4326 80.6004 12.4326C79.2965 12.4326 78.3201 13.1617 78.1739 14.1791H78.9516C79.1036 13.5534 79.7234 13.1167 80.5771 13.1167C81.5945 13.1167 82.0757 13.6137 82.0757 14.5375V15.1281L80.1911 15.2567C78.7352 15.3561 77.8366 15.9935 77.8366 17.0927C77.8366 18.2212 78.8112 18.9404 80.045 18.9404ZM80.1736 18.2621C79.3258 18.2621 78.7118 17.8061 78.7118 17.081C78.7118 16.3618 79.2264 15.9642 80.2964 15.8882L82.0757 15.7537V16.4905C82.0757 17.4903 81.3021 18.2621 80.1736 18.2621Z" fill="white"/>
<path d="M85.6315 10.8148V12.5378H84.4307V13.1869H85.6315V17.2681C85.6315 18.4142 86.111 18.8702 87.3155 18.8702C87.45 18.8702 87.8048 18.8527 87.9393 18.8293V18.1744C87.8107 18.1861 87.5201 18.192 87.3973 18.192C86.6898 18.192 86.4834 17.8645 86.4834 17.0927V13.1869H87.8534V12.5378H86.4834V10.8148H85.6315Z" fill="white"/>
<path d="M90.2416 11.2281C90.5574 11.2281 90.8146 10.9767 90.8146 10.6609C90.8146 10.3452 90.5574 10.0938 90.2416 10.0938C89.9317 10.0938 89.6744 10.3452 89.6744 10.6609C89.6744 10.9767 89.9317 11.2281 90.2416 11.2281ZM89.8616 18.8352H90.7134V12.5378H89.8616V18.8352Z" fill="white"/>
<path d="M98.0015 12.5378H97.0911L95.1908 17.9131H95.1207L93.2145 12.5378H92.31L94.6606 18.8352H95.6509L98.0015 12.5378Z" fill="white"/>
<path d="M103.759 17.194C103.49 17.8137 102.847 18.2563 101.953 18.2563C100.736 18.2563 99.9471 17.3442 99.9062 15.9233V15.8882H104.722V15.5491C104.722 13.6254 103.607 12.4326 101.929 12.4326C100.216 12.4326 99.0309 13.7131 99.0309 15.6894C99.0309 17.6774 100.204 18.9404 101.935 18.9404C103.257 18.9404 104.325 18.2113 104.623 17.194H103.759ZM101.923 13.1109C103.064 13.1109 103.818 13.9587 103.835 15.2567H99.912C99.9822 13.9587 100.777 13.1109 101.923 13.1109Z" fill="white"/>
<path d="M35.6559 26.066H35.7728L36.9324 30.773H39.3396L41.6006 22.3356H39.0512L38.0357 27.5395H37.9187L36.7592 22.3356H34.6695L33.5685 27.5395H33.4515L32.4126 22.3356H29.8398L32.1008 30.773H34.5256L35.6559 26.066Z" fill="white"/>
<path d="M46.4756 28.6815C46.3703 29.009 45.9961 29.4596 45.464 29.4596C44.7624 29.4596 44.3356 28.8493 44.3356 28.1242V27.9956H48.6624L48.7483 27.37C48.7483 25.2533 47.4521 24.0371 45.353 24.0371C43.248 24.0371 41.905 25.3469 41.905 27.5454C41.905 29.7205 43.2129 30.9367 45.3939 30.9367C47.1714 30.9367 48.4285 30.0088 48.6332 28.6815H46.4756ZM45.3705 25.6001C45.9669 25.6001 46.3294 26.0485 46.3703 26.6917H44.3473C44.394 26.0777 44.7975 25.6001 45.3705 25.6001Z" fill="white"/>
<path d="M54.6875 30.8665C56.3305 30.8665 57.3578 29.6386 57.3578 27.4869C57.3578 25.3176 56.3481 24.1073 54.6875 24.1073C53.787 24.1073 53.1029 24.5283 52.7989 25.265H52.6819V21.7801H50.1987V30.773H52.6235V29.7556H52.7404C53.0269 30.4572 53.7461 30.8665 54.6875 30.8665ZM53.7461 25.955C54.3951 25.955 54.902 26.5572 54.902 27.4869C54.902 28.4283 54.401 29.0188 53.7461 29.0188C53.0854 29.0188 52.6761 28.4341 52.6702 27.4927C52.6761 26.5514 53.0971 25.955 53.7461 25.955Z" fill="white"/>
<path d="M61.8378 28.1396C61.8495 29.8118 63.2236 31.0068 65.463 31.0068C67.7668 31.0068 69.2326 29.9193 69.2326 28.095C69.2326 26.7268 68.3866 25.9491 66.7435 25.6626L65.5916 25.4638C64.7847 25.3235 64.3539 25.0896 64.3539 24.6861C64.3539 24.2184 64.8608 23.926 65.5039 23.926C66.1647 23.926 66.6851 24.3119 66.7026 24.8206L68.9713 24.9924C68.9537 23.3727 67.5329 22.1017 65.4513 22.1017C63.3405 22.1017 61.8923 23.2127 61.8923 24.9317C61.8923 26.2941 62.8201 27.1828 64.3696 27.4518L65.4864 27.6506C66.3927 27.8143 66.7943 28.0014 66.7943 28.3932C66.7943 28.8668 66.2465 29.1767 65.5507 29.1767C64.7555 29.1767 64.2176 28.8376 64.1883 28.3113L61.8378 28.1396Z" fill="white"/>
<path d="M71.3379 22.7566V24.3178H70.2638V26.066H71.3379V28.9428C71.3379 30.2409 72.1488 30.773 73.9848 30.773C74.4409 30.773 74.8736 30.732 75.1016 30.6853V29.0188C74.9613 29.0364 74.8209 29.0481 74.5637 29.0481C74.0608 29.0481 73.8211 28.8317 73.8211 28.4166V26.066H75.1016V24.3178H73.8211V22.7566H71.3379Z" fill="white"/>
<path d="M83.3427 24.2008H80.8595V27.9137C80.8595 28.5686 80.6355 28.9954 80.0508 28.9954C79.4895 28.9954 79.1094 28.6037 79.1094 27.9137V24.2008H76.6262V28.5043C76.6262 30.0128 77.7061 30.9367 79.0744 30.9367C80.0625 30.9367 80.5888 30.4865 80.887 29.6971H80.918V30.773H83.3427V24.2008Z" fill="white"/>
<path d="M87.5026 30.8665C88.4206 30.8665 89.1339 30.4514 89.4321 29.7556H89.5491V30.773H91.8879V21.7801H89.4906V25.265H89.3737C89.0638 24.5341 88.3738 24.1073 87.5084 24.1073C85.8713 24.1073 84.8148 25.3585 84.8148 27.4694C84.8148 29.5977 85.8713 30.8665 87.5026 30.8665ZM88.4264 25.955C89.0989 25.955 89.5023 26.5338 89.5023 27.4927C89.5023 28.4517 89.1047 29.0188 88.4264 29.0188C87.754 29.0188 87.2705 28.4458 87.2705 27.4869C87.2705 26.5338 87.7599 25.955 88.4264 25.955Z" fill="white"/>
<path d="M95.0245 23.4407C95.697 23.4407 96.2466 22.9145 96.2466 22.2479C96.2466 21.5755 95.697 21.0492 95.0245 21.0492C94.358 21.0492 93.8025 21.5755 93.8025 22.2479C93.8025 22.9145 94.358 23.4407 95.0245 23.4407ZM93.8259 30.773H96.2232V24.1149H93.8259V30.773Z" fill="white"/>
<path d="M101.225 30.9367C103.4 30.9367 104.755 29.6679 104.755 27.481C104.755 25.341 103.365 24.0371 101.225 24.0371C99.0967 24.0371 97.6952 25.3527 97.6952 27.481C97.6952 29.662 99.0558 30.9367 101.225 30.9367ZM101.225 29.1475C100.599 29.1475 100.237 28.5452 100.237 27.4869C100.237 26.4578 100.611 25.8263 101.225 25.8263C101.839 25.8263 102.213 26.4578 102.213 27.4869C102.213 28.5394 101.851 29.1475 101.225 29.1475Z" fill="white"/>
</svg>
