<svg width="132" height="26" viewBox="0 0 132 26" fill="none" xmlns="http://www.w3.org/2000/svg">
<path d="M64.6445 3.8824V22.4544H66.676V15.4529H71.2035C74.7332 15.4529 77.4321 13.1105 77.4321 9.69984C77.4321 6.23769 74.7717 3.8824 71.2291 3.8824H64.6445ZM66.676 5.45259H70.8056C73.6936 5.45259 75.375 7.02279 75.375 9.69984C75.375 12.3125 73.6551 13.8827 70.8056 13.8827H66.676V5.45259Z" fill="#F5F5F5"/>
<path d="M80.7659 22.4544H82.7203V13.8055C82.7203 11.6175 84.039 9.99586 86.1825 9.99586C86.6831 9.99586 87.3762 10.0731 87.6843 10.1632L87.9572 8.20344C87.585 8.11335 86.8499 8.08761 86.3879 8.08761C84.5524 8.08761 82.9993 9.3652 82.5372 10.871H82.6433V8.31928H80.7659V22.4544Z" fill="#F5F5F5"/>
<path d="M91.4836 5.71C92.1767 5.71 92.7414 5.15657 92.7414 4.46157C92.7414 3.76656 92.1767 3.21313 91.4836 3.21313C90.8033 3.21313 90.2385 3.76656 90.2385 4.46157C90.2385 5.15657 90.8033 5.71 91.4836 5.71ZM90.6493 22.4544H92.6037V8.31928H90.6493V22.4544Z" fill="#F5F5F5"/>
<path d="M96.7333 22.4544H98.6877V13.9471C98.6877 11.6819 99.9678 9.88002 101.97 9.88002C103.883 9.88002 105.153 11.1799 105.153 13.1749V22.4544H107.108V13.6639C107.108 11.5146 108.26 9.88002 110.39 9.88002C112.47 9.88002 113.586 11.0898 113.586 13.355V22.4544H115.541V12.9689C115.541 10.0345 113.663 8.08761 110.891 8.08761C108.901 8.08761 107.284 9.42956 106.578 11.0898H106.411C105.821 9.42956 104.435 8.08761 102.496 8.08761C100.584 8.08761 99.1078 9.39094 98.5046 11.0898H98.6107V8.31928H96.7333V22.4544Z" fill="#F5F5F5"/>
<path d="M128.976 19.0309C128.386 20.3952 126.974 21.1803 125.01 21.1803C122.34 21.1803 120.607 19.1725 120.517 16.045V15.9677H131.174V15.2213C131.174 10.9869 128.642 8.08761 124.959 8.08761C121.198 8.08761 118.512 11.1799 118.512 15.5301C118.512 19.9061 121.172 22.6861 124.971 22.6861C127.872 22.6861 130.302 21.2704 130.956 19.0309H128.976ZM124.946 9.85428C127.449 9.85428 129.104 11.7205 129.143 14.5777H120.53C120.684 11.7205 122.43 9.85428 124.946 9.85428Z" fill="#F5F5F5"/>
<path d="M38.7298 22.3631C42.9413 22.3631 45.8473 20.3474 45.8473 17.0653C45.8473 14.6361 43.6796 12.8271 41.027 12.5945V12.3619C43.0096 12.0647 44.8764 10.3332 44.8764 8.36913C44.8764 5.50055 42.2849 3.71737 38.5384 3.71737H30.4609V22.3631H38.7298ZM34.1564 6.3146H37.677C39.81 6.3146 41.222 7.28372 41.222 8.95059C41.222 10.6562 39.728 11.5737 37.2257 11.5737H34.1564V6.3146ZM34.1564 19.7659V13.9383H37.7863C40.48 13.9383 42.0698 14.9333 42.0698 16.8327C42.0698 18.7451 40.5211 19.7659 37.9231 19.7659H34.1564Z" fill="#F5F5F5"/>
<path d="M47.6734 9.39333H51.1501C51.1501 7.42926 52.3498 5.92696 54.4965 5.92696C56.5612 5.92696 57.7918 7.23203 57.7918 8.92475C57.7918 10.3461 57.1902 11.2377 54.7016 13.6153L47.8648 20.1148V22.3631H61.7334V19.5979H52.6506V19.3783L57.0571 15.4372C60.4481 12.2973 61.4463 10.7855 61.4463 8.61463C61.4463 5.51347 58.6122 3.2522 54.6879 3.2522C50.5722 3.2522 47.6734 5.86575 47.6734 9.39333Z" fill="#F5F5F5"/>
<ellipse opacity="0.4" cx="4.40063" cy="4.48013" rx="4.22876" ry="4.23526" fill="#F5F5F5"/>
<ellipse opacity="0.4" cx="4.40063" cy="12.9484" rx="4.22876" ry="4.23526" fill="#F5F5F5"/>
<ellipse opacity="0.4" cx="4.40063" cy="21.4208" rx="4.22876" ry="4.23526" fill="#F5F5F5"/>
<ellipse cx="12.8577" cy="4.47964" rx="4.22876" ry="4.23526" fill="white" fill-opacity="0.8"/>
<ellipse cx="21.3147" cy="4.47964" rx="4.22876" ry="4.23526" fill="white" fill-opacity="0.8"/>
<ellipse cx="21.3186" cy="12.9484" rx="4.22876" ry="4.23526" fill="white" fill-opacity="0.8"/>
<ellipse cx="12.8577" cy="12.9484" rx="4.22876" ry="4.23526" fill="white" fill-opacity="0.8"/>
<ellipse cx="12.8577" cy="21.4208" rx="4.22876" ry="4.23526" fill="white" fill-opacity="0.8"/>
</svg>
