<svg width="116" height="30" viewBox="0 0 116 30" fill="none" xmlns="http://www.w3.org/2000/svg">
<path d="M56.7461 3.9976V18.1177H58.2906V12.7945H61.7328C64.4164 12.7945 66.4683 11.0136 66.4683 8.42051C66.4683 5.78829 64.4457 3.9976 61.7523 3.9976H56.7461ZM58.2906 5.1914H61.4302C63.6259 5.1914 64.9043 6.38519 64.9043 8.42051C64.9043 10.4069 63.5967 11.6007 61.4302 11.6007H58.2906V5.1914Z" fill="white"/>
<path d="M69.003 18.1177H70.4889V11.542C70.4889 9.87851 71.4914 8.64557 73.1211 8.64557C73.5017 8.64557 74.0287 8.70429 74.2629 8.77278L74.4704 7.28283C74.1874 7.21433 73.6286 7.19476 73.2772 7.19476C71.8818 7.19476 70.701 8.1661 70.3496 9.31097H70.4303V7.37089H69.003V18.1177Z" fill="white"/>
<path d="M77.1514 5.3871C77.6784 5.3871 78.1078 4.96634 78.1078 4.43793C78.1078 3.90953 77.6784 3.48877 77.1514 3.48877C76.6342 3.48877 76.2048 3.90953 76.2048 4.43793C76.2048 4.96634 76.6342 5.3871 77.1514 5.3871ZM76.5171 18.1177H78.003V7.37089H76.5171V18.1177Z" fill="white"/>
<path d="M81.1427 18.1177H82.6286V11.6496C82.6286 9.92744 83.6019 8.55751 85.1242 8.55751C86.5783 8.55751 87.5444 9.54581 87.5444 11.0625V18.1177H89.0303V11.4344C89.0303 9.80023 89.906 8.55751 91.5259 8.55751C93.1068 8.55751 93.9558 9.47732 93.9558 11.1995V18.1177H95.4417V10.906C95.4417 8.67493 94.0144 7.19476 91.9065 7.19476C90.3939 7.19476 89.1643 8.21502 88.6276 9.47732H88.5007C88.0518 8.21502 86.9979 7.19476 85.5243 7.19476C84.0703 7.19476 82.9481 8.18567 82.4894 9.47732H82.5701V7.37089H81.1427V18.1177Z" fill="white"/>
<path d="M105.656 15.5148C105.208 16.552 104.134 17.1489 102.641 17.1489C100.611 17.1489 99.2938 15.6224 99.2255 13.2446V13.1859H107.328V12.6184C107.328 9.39904 105.403 7.19476 102.602 7.19476C99.7427 7.19476 97.7005 9.54581 97.7005 12.8532C97.7005 16.1802 99.7232 18.2938 102.612 18.2938C104.817 18.2938 106.664 17.2174 107.162 15.5148H105.656ZM102.592 8.53794C104.495 8.53794 105.754 9.95679 105.783 12.1291H99.2352C99.3523 9.95679 100.68 8.53794 102.592 8.53794Z" fill="white"/>
<path d="M37.0445 18.0498C40.2464 18.0498 42.4558 16.5172 42.4558 14.0219C42.4558 12.175 40.8078 10.7996 38.791 10.6228V10.446C40.2984 10.22 41.7177 8.9036 41.7177 7.41035C41.7177 5.22941 39.7474 3.87369 36.899 3.87369H30.7578V18.0498H37.0445ZM33.5674 5.84832H36.244C37.8658 5.84832 38.9393 6.58512 38.9393 7.85243C38.9393 9.1492 37.8034 9.84671 35.901 9.84671H33.5674V5.84832ZM33.5674 16.0752V11.6445H36.3272C38.3752 11.6445 39.5838 12.401 39.5838 13.8451C39.5838 15.2991 38.4064 16.0752 36.4312 16.0752H33.5674Z" fill="white"/>
<path d="M43.8442 8.18903H46.4875C46.4875 6.69578 47.3996 5.5536 49.0317 5.5536C50.6015 5.5536 51.5371 6.54583 51.5371 7.83278C51.5371 8.91343 51.0797 9.59129 49.1876 11.3989L43.9897 16.3404V18.0498H54.5338V15.9474H47.6283V15.7804L50.9785 12.7841C53.5566 10.3969 54.3155 9.24744 54.3155 7.597C54.3155 5.23923 52.1608 3.52002 49.1772 3.52002C46.0481 3.52002 43.8442 5.50707 43.8442 8.18903Z" fill="white"/>
<ellipse cx="4.29598" cy="7.62728" rx="4.13192" ry="4.13827" fill="#448956"/>
<ellipse cx="4.29598" cy="15.9044" rx="4.13192" ry="4.13827" fill="#448956"/>
<ellipse cx="4.29598" cy="24.1807" rx="4.13192" ry="4.13827" fill="#448956"/>
<ellipse cx="12.5616" cy="7.62704" rx="4.13192" ry="4.13827" fill="#62E07E"/>
<ellipse cx="20.8233" cy="7.62704" rx="4.13192" ry="4.13827" fill="#67ED89"/>
<ellipse cx="20.8272" cy="15.9044" rx="4.13192" ry="4.13827" fill="#62E07E"/>
<ellipse cx="12.5616" cy="15.9044" rx="4.13192" ry="4.13827" fill="#62E07E"/>
<ellipse cx="12.5616" cy="24.1817" rx="4.13192" ry="4.13827" fill="#62E07E"/>
<path d="M34.5606 23.318H33.1219V27.2856H32.3265V23.318H30.9004V22.6716H34.5606V23.318ZM36.8544 24.5603C36.753 24.5434 36.6485 24.5349 36.5407 24.5349C36.1879 24.5349 35.9502 24.6702 35.8277 24.9406V27.2856H35.0576V23.8568H35.7928L35.8118 24.2402C35.9978 23.9423 36.2555 23.7934 36.5851 23.7934C36.6949 23.7934 36.7858 23.8082 36.8576 23.8378L36.8544 24.5603ZM39.4683 27.2856C39.4345 27.2202 39.405 27.1135 39.3796 26.9656C39.1345 27.2212 38.8345 27.349 38.4796 27.349C38.1352 27.349 37.8543 27.2508 37.6367 27.0543C37.4191 26.8578 37.3103 26.6149 37.3103 26.3254C37.3103 25.9599 37.4455 25.68 37.7159 25.4856C37.9884 25.2892 38.3772 25.1909 38.8821 25.1909H39.3543V24.9659C39.3543 24.7885 39.3046 24.6469 39.2053 24.5413C39.106 24.4335 38.955 24.3797 38.7521 24.3797C38.5768 24.3797 38.4331 24.424 38.3212 24.5128C38.2092 24.5994 38.1532 24.7103 38.1532 24.8455H37.3831C37.3831 24.6575 37.4455 24.4821 37.5701 24.3195C37.6948 24.1547 37.8638 24.0258 38.0772 23.9328C38.2926 23.8399 38.5324 23.7934 38.7965 23.7934C39.1979 23.7934 39.518 23.8948 39.7567 24.0976C39.9955 24.2983 40.118 24.5814 40.1243 24.9469V26.4934C40.1243 26.8018 40.1676 27.048 40.2543 27.2318V27.2856H39.4683ZM38.6222 26.7311C38.7743 26.7311 38.9169 26.6941 39.05 26.6202C39.1852 26.5462 39.2867 26.4469 39.3543 26.3223V25.6758H38.9391C38.6539 25.6758 38.4395 25.7254 38.2958 25.8247C38.1522 25.924 38.0803 26.0645 38.0803 26.2462C38.0803 26.3941 38.1289 26.5124 38.2261 26.6011C38.3254 26.6878 38.4574 26.7311 38.6222 26.7311ZM40.9604 25.5459C40.9604 25.0177 41.0829 24.5941 41.328 24.2751C41.5731 23.954 41.9016 23.7934 42.3136 23.7934C42.677 23.7934 42.9706 23.9202 43.1946 24.1737V22.418H43.9646V27.2856H43.2675L43.2294 26.9307C42.9991 27.2096 42.6917 27.349 42.3072 27.349C41.9058 27.349 41.5805 27.1874 41.3312 26.8642C41.084 26.5409 40.9604 26.1015 40.9604 25.5459ZM41.7305 25.6124C41.7305 25.961 41.797 26.2335 41.9301 26.43C42.0653 26.6244 42.2565 26.7216 42.5037 26.7216C42.8185 26.7216 43.0488 26.5811 43.1946 26.3001V24.836C43.053 24.5614 42.8248 24.424 42.5101 24.424C42.2608 24.424 42.0685 24.5233 41.9333 24.7219C41.7981 24.9184 41.7305 25.2152 41.7305 25.6124ZM46.4518 27.349C45.9637 27.349 45.5676 27.1959 45.2634 26.8895C44.9613 26.5811 44.8102 26.1712 44.8102 25.6599V25.5649C44.8102 25.2226 44.8757 24.9173 45.0067 24.649C45.1398 24.3786 45.3257 24.1684 45.5644 24.0184C45.8032 23.8684 46.0694 23.7934 46.363 23.7934C46.8299 23.7934 47.1901 23.9423 47.4437 24.2402C47.6993 24.5381 47.8271 24.9596 47.8271 25.5047V25.8152H45.5866C45.6099 26.0983 45.7039 26.3223 45.8687 26.4871C46.0356 26.6518 46.2447 26.7342 46.4961 26.7342C46.849 26.7342 47.1363 26.5916 47.3581 26.3064L47.7732 26.7025C47.6359 26.9075 47.4521 27.067 47.2218 27.1811C46.9937 27.293 46.737 27.349 46.4518 27.349ZM46.3599 24.4114C46.1486 24.4114 45.9775 24.4853 45.8465 24.6332C45.7176 24.7811 45.6352 24.9871 45.5993 25.2511H47.0666V25.1941C47.0497 24.9364 46.981 24.742 46.8606 24.611C46.7401 24.4779 46.5732 24.4114 46.3599 24.4114ZM49.0815 26.4744C49.2252 26.4744 49.3361 26.5156 49.4143 26.598C49.4924 26.6783 49.5315 26.7797 49.5315 26.9022C49.5315 27.0226 49.4924 27.123 49.4143 27.2033C49.3361 27.2814 49.2252 27.3205 49.0815 27.3205C48.9442 27.3205 48.8354 27.2814 48.7551 27.2033C48.6748 27.1251 48.6347 27.0247 48.6347 26.9022C48.6347 26.7797 48.6738 26.6783 48.7519 26.598C48.8301 26.5156 48.94 26.4744 49.0815 26.4744ZM56.1156 27.2856H55.317V25.2353H53.254V27.2856H52.4523V22.6716H53.254V24.592H55.317V22.6716H56.1156V27.2856ZM58.6757 27.349C58.1876 27.349 57.7915 27.1959 57.4873 26.8895C57.1852 26.5811 57.0341 26.1712 57.0341 25.6599V25.5649C57.0341 25.2226 57.0996 24.9173 57.2306 24.649C57.3637 24.3786 57.5496 24.1684 57.7883 24.0184C58.0271 23.8684 58.2933 23.7934 58.5869 23.7934C59.0538 23.7934 59.414 23.9423 59.6676 24.2402C59.9232 24.5381 60.051 24.9596 60.051 25.5047V25.8152H57.8105C57.8338 26.0983 57.9278 26.3223 58.0926 26.4871C58.2595 26.6518 58.4686 26.7342 58.72 26.7342C59.0728 26.7342 59.3602 26.5916 59.582 26.3064L59.9971 26.7025C59.8598 26.9075 59.676 27.067 59.4457 27.1811C59.2176 27.293 58.9609 27.349 58.6757 27.349ZM58.5838 24.4114C58.3725 24.4114 58.2014 24.4853 58.0704 24.6332C57.9415 24.7811 57.8591 24.9871 57.8232 25.2511H59.2905V25.1941C59.2735 24.9364 59.2049 24.742 59.0845 24.611C58.964 24.4779 58.7971 24.4114 58.5838 24.4114ZM60.6811 25.5459C60.6811 25.0177 60.8036 24.5941 61.0487 24.2751C61.2938 23.954 61.6223 23.7934 62.0343 23.7934C62.3977 23.7934 62.6913 23.9202 62.9153 24.1737V22.418H63.6853V27.2856H62.9881L62.9501 26.9307C62.7198 27.2096 62.4124 27.349 62.0279 27.349C61.6265 27.349 61.3012 27.1874 61.0519 26.8642C60.8047 26.5409 60.6811 26.1015 60.6811 25.5459ZM61.4512 25.6124C61.4512 25.961 61.5177 26.2335 61.6508 26.43C61.786 26.6244 61.9772 26.7216 62.2244 26.7216C62.5392 26.7216 62.7695 26.5811 62.9153 26.3001V24.836C62.7737 24.5614 62.5455 24.424 62.2308 24.424C61.9815 24.424 61.7892 24.5233 61.654 24.7219C61.5188 24.9184 61.4512 25.2152 61.4512 25.6124ZM64.5277 25.5459C64.5277 25.0135 64.6524 24.5888 64.9017 24.2719C65.1531 23.9529 65.4858 23.7934 65.8999 23.7934C66.2908 23.7934 66.5982 23.9297 66.8221 24.2022L66.857 23.8568H67.551V27.1811C67.551 27.6311 67.4105 27.986 67.1295 28.2459C66.8506 28.5057 66.4735 28.6356 65.9982 28.6356C65.7468 28.6356 65.5006 28.5828 65.2598 28.4772C65.0211 28.3737 64.8394 28.2374 64.7147 28.0684L65.0792 27.6057C65.3158 27.8867 65.6073 28.0272 65.9538 28.0272C66.2094 28.0272 66.4112 27.9575 66.5591 27.818C66.707 27.6807 66.7809 27.4779 66.7809 27.2096V26.9783C66.5591 27.2254 66.2633 27.349 65.8936 27.349C65.4922 27.349 65.1637 27.1895 64.908 26.8705C64.6545 26.5515 64.5277 26.1099 64.5277 25.5459ZM65.2946 25.6124C65.2946 25.9568 65.3644 26.2283 65.5038 26.4268C65.6454 26.6233 65.8408 26.7216 66.0901 26.7216C66.4006 26.7216 66.6309 26.5885 66.7809 26.3223V24.8138C66.6351 24.554 66.407 24.424 66.0964 24.424C65.8429 24.424 65.6454 24.5244 65.5038 24.7251C65.3644 24.9258 65.2946 25.2216 65.2946 25.6124ZM70.0286 27.349C69.5406 27.349 69.1445 27.1959 68.8402 26.8895C68.5381 26.5811 68.3871 26.1712 68.3871 25.6599V25.5649C68.3871 25.2226 68.4526 24.9173 68.5835 24.649C68.7166 24.3786 68.9026 24.1684 69.1413 24.0184C69.38 23.8684 69.6462 23.7934 69.9399 23.7934C70.4068 23.7934 70.767 23.9423 71.0205 24.2402C71.2761 24.5381 71.404 24.9596 71.404 25.5047V25.8152H69.1635C69.1867 26.0983 69.2807 26.3223 69.4455 26.4871C69.6124 26.6518 69.8216 26.7342 70.073 26.7342C70.4258 26.7342 70.7131 26.5916 70.9349 26.3064L71.3501 26.7025C71.2128 26.9075 71.029 27.067 70.7987 27.1811C70.5705 27.293 70.3138 27.349 70.0286 27.349ZM69.9367 24.4114C69.7254 24.4114 69.5543 24.4853 69.4233 24.6332C69.2945 24.7811 69.2121 24.9871 69.1761 25.2511H70.6434V25.1941C70.6265 24.9364 70.5578 24.742 70.4374 24.611C70.317 24.4779 70.1501 24.4114 69.9367 24.4114ZM72.6584 26.4744C72.802 26.4744 72.9129 26.5156 72.9911 26.598C73.0693 26.6783 73.1084 26.7797 73.1084 26.9022C73.1084 27.0226 73.0693 27.123 72.9911 27.2033C72.9129 27.2814 72.802 27.3205 72.6584 27.3205C72.521 27.3205 72.4122 27.2814 72.3319 27.2033C72.2517 27.1251 72.2115 27.0247 72.2115 26.9022C72.2115 26.7797 72.2506 26.6783 72.3288 26.598C72.4069 26.5156 72.5168 26.4744 72.6584 26.4744ZM78.7259 25.2258H76.8309V26.6455H79.046V27.2856H76.0291V22.6716H79.0238V23.318H76.8309V24.592H78.7259V25.2258ZM81.0293 24.9849L81.6821 23.8568H82.5377L81.4888 25.5459L82.5726 27.2856H81.7233L81.0388 26.1131L80.3574 27.2856H79.5018L80.5856 25.5459L79.5398 23.8568H80.3891L81.0293 24.9849ZM84.6826 27.349C84.1946 27.349 83.7984 27.1959 83.4942 26.8895C83.1921 26.5811 83.0411 26.1712 83.0411 25.6599V25.5649C83.0411 25.2226 83.1065 24.9173 83.2375 24.649C83.3706 24.3786 83.5565 24.1684 83.7953 24.0184C84.034 23.8684 84.3002 23.7934 84.5939 23.7934C85.0608 23.7934 85.421 23.9423 85.6745 24.2402C85.9301 24.5381 86.0579 24.9596 86.0579 25.5047V25.8152H83.8175C83.8407 26.0983 83.9347 26.3223 84.0995 26.4871C84.2664 26.6518 84.4756 26.7342 84.727 26.7342C85.0798 26.7342 85.3671 26.5916 85.5889 26.3064L86.0041 26.7025C85.8668 26.9075 85.6829 27.067 85.4527 27.1811C85.2245 27.293 84.9678 27.349 84.6826 27.349ZM84.5907 24.4114C84.3794 24.4114 84.2083 24.4853 84.0773 24.6332C83.9484 24.7811 83.8661 24.9871 83.8301 25.2511H85.2974V25.1941C85.2805 24.9364 85.2118 24.742 85.0914 24.611C84.971 24.4779 84.8041 24.4114 84.5907 24.4114ZM88.2409 26.7342C88.4331 26.7342 88.5926 26.6783 88.7194 26.5663C88.8461 26.4543 88.9137 26.3159 88.9222 26.1511H89.6479C89.6395 26.3645 89.5729 26.5642 89.4483 26.7501C89.3236 26.9339 89.1546 27.0797 88.9412 27.1874C88.7278 27.2952 88.4976 27.349 88.2504 27.349C87.7708 27.349 87.3905 27.1937 87.1095 26.8832C86.8285 26.5726 86.688 26.1437 86.688 25.5966V25.5173C86.688 24.9955 86.8275 24.5783 87.1064 24.2656C87.3852 23.9508 87.7655 23.7934 88.2472 23.7934C88.6549 23.7934 88.9866 23.9128 89.2423 24.1515C89.5 24.3881 89.6352 24.6997 89.6479 25.0864H88.9222C88.9137 24.8899 88.8461 24.7283 88.7194 24.6015C88.5947 24.4747 88.4352 24.4114 88.2409 24.4114C87.9916 24.4114 87.7993 24.5022 87.6641 24.6839C87.5289 24.8635 87.4602 25.1371 87.4581 25.5047V25.6283C87.4581 26.0001 87.5247 26.2779 87.6578 26.4617C87.793 26.6434 87.9873 26.7342 88.2409 26.7342ZM92.4805 26.9497C92.2544 27.2159 91.9333 27.349 91.5171 27.349C91.1452 27.349 90.8632 27.2402 90.671 27.0226C90.4808 26.805 90.3857 26.4902 90.3857 26.0783V23.8568H91.1558V26.0687C91.1558 26.504 91.3364 26.7216 91.6977 26.7216C92.0717 26.7216 92.3241 26.5874 92.4551 26.3191V23.8568H93.2252V27.2856H92.4995L92.4805 26.9497ZM95.1482 23.0233V23.8568H95.7535V24.4272H95.1482V26.3413C95.1482 26.4723 95.1736 26.5673 95.2243 26.6265C95.2771 26.6835 95.3701 26.7121 95.5032 26.7121C95.5919 26.7121 95.6817 26.7015 95.7725 26.6804V27.2761C95.5972 27.3247 95.4282 27.349 95.2655 27.349C94.6739 27.349 94.3782 27.0226 94.3782 26.3698V24.4272H93.8141V23.8568H94.3782V23.0233H95.1482ZM98.0283 27.349C97.5403 27.349 97.1442 27.1959 96.8399 26.8895C96.5378 26.5811 96.3868 26.1712 96.3868 25.6599V25.5649C96.3868 25.2226 96.4523 24.9173 96.5833 24.649C96.7164 24.3786 96.9023 24.1684 97.141 24.0184C97.3797 23.8684 97.6459 23.7934 97.9396 23.7934C98.4065 23.7934 98.7667 23.9423 99.0202 24.2402C99.2759 24.5381 99.4037 24.9596 99.4037 25.5047V25.8152H97.1632C97.1864 26.0983 97.2804 26.3223 97.4452 26.4871C97.6121 26.6518 97.8213 26.7342 98.0727 26.7342C98.4255 26.7342 98.7128 26.5916 98.9347 26.3064L99.3498 26.7025C99.2125 26.9075 99.0287 27.067 98.7984 27.1811C98.5702 27.293 98.3135 27.349 98.0283 27.349ZM97.9364 24.4114C97.7252 24.4114 97.554 24.4853 97.423 24.6332C97.2942 24.7811 97.2118 24.9871 97.1759 25.2511H98.6431V25.1941C98.6262 24.9364 98.5575 24.742 98.4371 24.611C98.3167 24.4779 98.1498 24.4114 97.9364 24.4114ZM100.658 26.4744C100.802 26.4744 100.913 26.5156 100.991 26.598C101.069 26.6783 101.108 26.7797 101.108 26.9022C101.108 27.0226 101.069 27.123 100.991 27.2033C100.913 27.2814 100.802 27.3205 100.658 27.3205C100.521 27.3205 100.412 27.2814 100.332 27.2033C100.251 27.1251 100.211 27.0247 100.211 26.9022C100.211 26.7797 100.25 26.6783 100.328 26.598C100.407 26.5156 100.517 26.4744 100.658 26.4744Z" fill="white"/>
<path d="M111.191 1.61249H110.368V3.89502H110.032V1.61249H109.211V1.33465H111.191V1.61249ZM111.921 1.33465L112.758 3.42374L113.596 1.33465H114.033V3.89502H113.696V2.89795L113.727 1.82175L112.887 3.89502H112.628L111.79 1.82703L111.823 2.89795V3.89502H111.485V1.33465H111.921Z" fill="white"/>
</svg>
