<svg width="23" height="20" viewBox="0 0 23 20" fill="none" xmlns="http://www.w3.org/2000/svg">
<path d="M12.3929 4.08292L11.7659 7.13347C11.6339 7.75625 11.8099 8.40014 12.2279 8.8857C12.6459 9.37125 13.2619 9.65625 13.9219 9.65625H19.9719V10.7963L17.1449 17.0451H8.24588C8.14756 17.0425 8.05403 17.0038 7.98449 16.9371C7.91494 16.8703 7.87465 16.7806 7.87188 16.6863V8.41069L12.3929 4.08292ZM13.3719 0.15625L6.32088 6.92236C5.90288 7.32347 5.67188 7.86181 5.67188 8.42125V16.6863C5.67188 18.0479 6.82688 19.1562 8.24588 19.1562H17.1559C17.9369 19.1562 18.6519 18.7657 19.0479 18.1324L21.9849 11.6407C22.1059 11.3768 22.1719 11.0918 22.1719 10.7963V9.65625C22.1719 8.49514 21.1819 7.54514 19.9719 7.54514H13.9219L14.9339 2.63681C14.9889 2.40458 14.9559 2.15125 14.8459 1.94014C14.5957 1.46473 14.2691 1.03013 13.8779 0.652361L13.3719 0.15625ZM2.37188 7.54514H0.171875V19.1562H2.37188C2.97688 19.1562 3.47188 18.6812 3.47188 18.1007V8.60069C3.47188 8.02014 2.97688 7.54514 2.37188 7.54514Z" fill="#1C1C1C"/>
</svg>
