<svg width="20" height="26" viewBox="0 0 20 26" fill="none" xmlns="http://www.w3.org/2000/svg">
<path d="M16.4209 14.5662C15.6349 16.1592 14.5699 17.7463 13.4809 19.1712C12.4478 20.5147 11.3432 21.8015 10.1719 23.0262C9.0005 21.8016 7.8959 20.5147 6.86287 19.1712C5.77388 17.7463 4.70888 16.1592 3.92288 14.5662C3.12788 12.9567 2.67188 11.4493 2.67188 10.1562C2.67188 8.16713 3.46205 6.25947 4.86857 4.85295C6.2751 3.44643 8.18275 2.65625 10.1719 2.65625C12.161 2.65625 14.0687 3.44643 15.4752 4.85295C16.8817 6.25947 17.6719 8.16713 17.6719 10.1562C17.6719 11.4493 17.2144 12.9567 16.4209 14.5662ZM10.1719 25.1562C10.1719 25.1562 19.1719 16.6273 19.1719 10.1562C19.1719 7.7693 18.2237 5.48012 16.5358 3.79229C14.848 2.10446 12.5588 1.15625 10.1719 1.15625C7.78493 1.15625 5.49574 2.10446 3.80791 3.79229C2.12009 5.48012 1.17188 7.7693 1.17188 10.1562C1.17188 16.6273 10.1719 25.1562 10.1719 25.1562Z" fill="#1C1C1C" stroke="#1C1C1C" stroke-width="0.7"/>
</svg>
