<svg width="21" height="21" viewBox="0 0 21 21" fill="none" xmlns="http://www.w3.org/2000/svg">
<path d="M16.1719 9.15625H12.9919C12.5719 7.99625 11.4719 7.15625 10.1719 7.15625C8.87187 7.15625 7.77188 7.99625 7.35188 9.15625H4.17188C3.84188 9.15625 2.17188 9.05625 2.17188 7.15625V6.15625C2.17188 4.32625 3.71187 4.15625 4.17188 4.15625H14.3519C14.7719 5.31625 15.8719 6.15625 17.1719 6.15625C17.9675 6.15625 18.7306 5.84018 19.2932 5.27757C19.8558 4.71496 20.1719 3.9519 20.1719 3.15625C20.1719 2.3606 19.8558 1.59754 19.2932 1.03493C18.7306 0.472321 17.9675 0.15625 17.1719 0.15625C15.8719 0.15625 14.7719 0.99625 14.3519 2.15625H4.17188C2.56187 2.15625 0.171875 3.21625 0.171875 6.15625V7.15625C0.171875 10.0963 2.56187 11.1562 4.17188 11.1562H7.35188C7.77188 12.3162 8.87187 13.1562 10.1719 13.1562C11.4719 13.1562 12.5719 12.3162 12.9919 11.1562H16.1719C16.5019 11.1562 18.1719 11.2563 18.1719 13.1562V14.1562C18.1719 15.9862 16.6319 16.1562 16.1719 16.1562H5.99188C5.57188 14.9963 4.47188 14.1562 3.17188 14.1562C2.37623 14.1562 1.61316 14.4723 1.05055 15.0349C0.487946 15.5975 0.171875 16.3606 0.171875 17.1562C0.171875 17.9519 0.487946 18.715 1.05055 19.2776C1.61316 19.8402 2.37623 20.1562 3.17188 20.1562C4.47188 20.1562 5.57188 19.3162 5.99188 18.1562H16.1719C17.7819 18.1562 20.1719 17.0863 20.1719 14.1562V13.1562C20.1719 10.2262 17.7819 9.15625 16.1719 9.15625ZM17.1719 2.15625C17.4371 2.15625 17.6914 2.26161 17.879 2.44914C18.0665 2.63668 18.1719 2.89103 18.1719 3.15625C18.1719 3.42147 18.0665 3.67582 17.879 3.86336C17.6914 4.05089 17.4371 4.15625 17.1719 4.15625C16.9067 4.15625 16.6523 4.05089 16.4648 3.86336C16.2772 3.67582 16.1719 3.42147 16.1719 3.15625C16.1719 2.89103 16.2772 2.63668 16.4648 2.44914C16.6523 2.26161 16.9067 2.15625 17.1719 2.15625ZM3.17188 18.1562C2.90666 18.1562 2.6523 18.0509 2.46477 17.8634C2.27723 17.6758 2.17188 17.4215 2.17188 17.1562C2.17188 16.891 2.27723 16.6367 2.46477 16.4491C2.6523 16.2616 2.90666 16.1562 3.17188 16.1562C3.43709 16.1562 3.69145 16.2616 3.87898 16.4491C4.06652 16.6367 4.17188 16.891 4.17188 17.1562C4.17188 17.4215 4.06652 17.6758 3.87898 17.8634C3.69145 18.0509 3.43709 18.1562 3.17188 18.1562Z" fill="#1C1C1C"/>
</svg>
