<svg width="105" height="105" viewBox="0 0 105 105" fill="none" xmlns="http://www.w3.org/2000/svg">
<circle cx="52.6719" cy="52.1562" r="51.362" stroke="#878787" stroke-width="1.27607"/>
<path d="M76.6104 45.1062L76.7066 45.442L77.0413 45.5419L84.3279 47.717C84.4465 47.7738 84.5468 47.8632 84.6169 47.9749C84.6924 48.0953 84.7292 48.2358 84.7225 48.3777L84.7218 48.3928V48.408L84.7218 55.863C84.7218 55.8635 84.7218 55.8639 84.7218 55.8644C84.7208 56.0121 84.6729 56.1556 84.5849 56.2743C84.4972 56.3926 84.3743 56.48 84.2339 56.524C84.233 56.5243 84.232 56.5246 84.2311 56.5249L76.8673 58.7099L76.5348 58.8086L76.4368 59.1413C75.9375 60.8364 75.2584 62.4734 74.4112 64.0241L74.2457 64.327L74.4086 64.6312L78.0382 71.4093C78.0383 71.4096 78.0385 71.4098 78.0386 71.4101C78.1085 71.5422 78.1341 71.6932 78.1115 71.8409C78.0889 71.9889 78.0192 72.1257 77.9126 72.2309L77.9099 72.2336L72.6828 77.4607L72.6801 77.4635C72.5749 77.57 72.4381 77.6397 72.2901 77.6623C72.1425 77.6849 71.9915 77.6593 71.8595 77.5896C71.8592 77.5894 71.8588 77.5892 71.8585 77.589L65.0578 73.959L64.7548 73.7973L64.453 73.9612C62.9081 74.7997 61.2785 75.4715 59.5915 75.9655L59.2576 76.0632L59.159 76.3968L56.974 83.7819C56.9737 83.7829 56.9734 83.7839 56.9731 83.7849C56.9291 83.9253 56.8417 84.0481 56.7235 84.1357C56.6048 84.2237 56.4613 84.2716 56.3136 84.2726C56.3131 84.2726 56.3126 84.2726 56.3122 84.2726H48.9257C48.9253 84.2726 48.9248 84.2726 48.9244 84.2726C48.7767 84.2716 48.6331 84.2237 48.5144 84.1357C48.3962 84.048 48.3088 83.9252 48.2648 83.7847C48.2645 83.7838 48.2642 83.7829 48.2639 83.7819L46.0788 76.4182L45.9795 76.0835L45.6442 75.9867C43.9426 75.4953 42.2985 74.8233 40.7398 73.9823L40.4384 73.8196L40.1363 73.981L33.3795 77.589C33.379 77.5892 33.3786 77.5894 33.3782 77.5896C33.2463 77.6594 33.0954 77.6849 32.9479 77.6623C32.7999 77.6397 32.6631 77.57 32.5578 77.4635L32.5551 77.4608L27.328 72.2336L27.3253 72.2309C27.2188 72.1257 27.149 71.9889 27.1264 71.8409C27.1038 71.6929 27.1295 71.5415 27.1998 71.4093L27.2018 71.4054L30.7886 64.5379L30.9492 64.2304L30.7784 63.9284C29.8886 62.3552 29.1736 60.6893 28.6463 58.9604L28.5466 58.6338L28.2195 58.5355L20.9412 56.3499C20.9406 56.3497 20.9399 56.3495 20.9393 56.3493C20.7985 56.3054 20.6753 56.2178 20.5874 56.0994C20.4994 55.9806 20.4515 55.837 20.4505 55.6893V48.3003C20.4515 48.1526 20.4994 48.009 20.5874 47.8903C20.6754 47.7716 20.7988 47.684 20.9398 47.6402C20.9403 47.64 20.9407 47.6399 20.9412 47.6397L28.1768 45.4538L28.5061 45.3543L28.6039 45.0245C29.1256 43.2664 29.8407 41.5716 30.7362 39.9711L30.9074 39.665L30.7408 39.3564L27.1998 32.799C27.1995 32.7985 27.1992 32.7979 27.1989 32.7974C27.1293 32.6656 27.1039 32.5148 27.1264 32.3674C27.149 32.22 27.2182 32.0837 27.324 31.9787C27.3244 31.9783 27.3249 31.9778 27.3253 31.9774L32.637 26.7969L32.637 26.797L32.6453 26.7886C32.7506 26.6821 32.8873 26.6124 33.0353 26.5898C33.1827 26.5672 33.3335 26.5926 33.4653 26.6622C33.4658 26.6625 33.4664 26.6628 33.4669 26.6631L40.0243 30.2041L40.3325 30.3705L40.6384 30.1998C42.2456 29.303 43.9476 28.5878 45.7131 28.0676L46.0435 27.9702L46.1434 27.6406L48.3295 20.4264C48.3296 20.4259 48.3298 20.4255 48.3299 20.425C48.3738 20.284 48.4614 20.1606 48.58 20.0726C48.6987 19.9846 48.8424 19.9367 48.9901 19.9357H56.3808H56.3879L56.3951 19.9356C56.5424 19.9323 56.6869 19.9758 56.8079 20.0599C56.9259 20.1419 57.0156 20.2584 57.0647 20.3933L59.2475 27.6182L59.3468 27.9468L59.6756 28.045C61.4265 28.568 63.114 29.2831 64.7076 30.1772L65.0123 30.3482L65.3205 30.1835L71.9897 26.6193C71.9899 26.6192 71.9901 26.6192 71.9902 26.6191C72.1223 26.549 72.2735 26.5234 72.4213 26.546C72.5693 26.5686 72.7061 26.6384 72.8113 26.7449L72.8131 26.7466L78.0402 31.9957L78.0439 31.9993C78.1504 32.1045 78.2201 32.2413 78.2427 32.3893C78.2653 32.537 78.2397 32.6881 78.1698 32.8201C78.1697 32.8204 78.1695 32.8206 78.1694 32.8209L74.5833 39.5339L74.4218 39.8363L74.5847 40.1378C75.4374 41.716 76.1166 43.3818 76.6104 45.1062ZM45.6471 62.6364C47.7302 64.0283 50.1793 64.7712 52.6846 64.7712C56.0441 64.7712 59.266 63.4367 61.6416 61.0611C64.0171 58.6856 65.3517 55.4637 65.3517 52.1042C65.3517 49.5989 64.6087 47.1498 63.2169 45.0667C61.825 42.9836 59.8467 41.3601 57.5321 40.4013C55.2175 39.4426 52.6705 39.1917 50.2134 39.6805C47.7562 40.1692 45.4991 41.3757 43.7276 43.1472C41.9561 44.9187 40.7497 47.1758 40.2609 49.6329C39.7721 52.0901 40.023 54.637 40.9817 56.9516C41.9405 59.2663 43.564 61.2446 45.6471 62.6364Z" stroke="#878787" stroke-width="1.27607"/>
</svg>
