<svg width="21" height="21" viewBox="0 0 21 21" fill="none" xmlns="http://www.w3.org/2000/svg">
<path d="M10.1719 0.15625C4.65788 0.15625 0.171875 4.64225 0.171875 10.1562V14.2992C0.171875 15.3232 1.06887 16.1562 2.17188 16.1562H3.17188C3.43709 16.1562 3.69145 16.0509 3.87898 15.8634C4.06652 15.6758 4.17188 15.4215 4.17188 15.1562V10.0133C4.17188 9.74803 4.06652 9.49368 3.87898 9.30614C3.69145 9.11861 3.43709 9.01325 3.17188 9.01325H2.26388C2.81988 5.14325 6.14988 2.15625 10.1719 2.15625C14.1939 2.15625 17.5239 5.14325 18.0799 9.01325H17.1719C16.9067 9.01325 16.6523 9.11861 16.4648 9.30614C16.2772 9.49368 16.1719 9.74803 16.1719 10.0133V16.1562C16.1719 17.2593 15.2749 18.1562 14.1719 18.1562H12.1719V17.1562H8.17188V20.1562H14.1719C16.3779 20.1562 18.1719 18.3622 18.1719 16.1562C19.2749 16.1562 20.1719 15.3232 20.1719 14.2992V10.1562C20.1719 4.64225 15.6859 0.15625 10.1719 0.15625Z" fill="#1C1C1C"/>
</svg>
